<mxfile host="app.diagrams.net" modified="2022-04-28T08:16:38.312Z" agent="5.0 (Windows NT 10.0; Win64; x64) AppleWebKit/537.36 (KHTML, like Gecko) Chrome/100.0.4896.127 Safari/537.36 Edg/100.0.1185.44" etag="1A8p0c6lu82ZkGEAdJmc" version="17.4.6" type="github">
  <diagram id="OLhPDL9vVUV0eG-HnbZ-" name="Page-1">
    <mxGraphModel dx="1000" dy="762" grid="1" gridSize="10" guides="1" tooltips="1" connect="1" arrows="1" fold="1" page="1" pageScale="1" pageWidth="850" pageHeight="1100" math="0" shadow="0">
      <root>
        <mxCell id="0" />
        <mxCell id="1" parent="0" />
        <mxCell id="NGoooqPzina_PwN_Q1PQ-1" value="" style="whiteSpace=wrap;html=1;aspect=fixed;" vertex="1" parent="1">
          <mxGeometry x="150" y="150" width="560" height="560" as="geometry" />
        </mxCell>
        <mxCell id="NGoooqPzina_PwN_Q1PQ-2" value="Add Row" style="rounded=1;whiteSpace=wrap;html=1;" vertex="1" parent="1">
          <mxGeometry x="380" y="170" width="120" height="60" as="geometry" />
        </mxCell>
        <mxCell id="NGoooqPzina_PwN_Q1PQ-3" value="Save" style="rounded=1;whiteSpace=wrap;html=1;" vertex="1" parent="1">
          <mxGeometry x="380" y="250" width="120" height="60" as="geometry" />
        </mxCell>
        <mxCell id="NGoooqPzina_PwN_Q1PQ-4" value="Frame1" style="rounded=1;whiteSpace=wrap;html=1;" vertex="1" parent="1">
          <mxGeometry x="170" y="340" width="520" height="80" as="geometry" />
        </mxCell>
        <mxCell id="NGoooqPzina_PwN_Q1PQ-5" value="Frame2" style="rounded=1;whiteSpace=wrap;html=1;" vertex="1" parent="1">
          <mxGeometry x="170" y="440" width="520" height="80" as="geometry" />
        </mxCell>
        <mxCell id="NGoooqPzina_PwN_Q1PQ-6" value="" style="rounded=1;whiteSpace=wrap;html=1;" vertex="1" parent="1">
          <mxGeometry x="170" y="540" width="520" height="80" as="geometry" />
        </mxCell>
      </root>
    </mxGraphModel>
  </diagram>
</mxfile>
